<?xml version="1.0" encoding="UTF-8" standalone="no"?><!DOCTYPE svg PUBLIC "-//W3C//DTD SVG 1.1//EN" "http://www.w3.org/Graphics/SVG/1.1/DTD/svg11.dtd"><svg width="100%" height="100%" viewBox="0 0 1418 1418" version="1.1" xmlns="http://www.w3.org/2000/svg" xmlns:xlink="http://www.w3.org/1999/xlink" xml:space="preserve" xmlns:serif="http://www.serif.com/" style="fill-rule:evenodd;clip-rule:evenodd;stroke-linecap:round;stroke-linejoin:round;stroke-miterlimit:1.5;"><g><g><g><path d="M787.736,375.246c136.756,44.796 211.416,192.193 166.62,328.949c-44.796,136.756 -192.193,211.416 -328.949,166.62c-136.756,-44.795 -211.417,-192.193 -166.621,-328.949c44.796,-136.756 192.193,-211.416 328.95,-166.62Z" style="fill:#0d28f2;"/><path d="M901.365,28.346l-63.213,528.037l463.598,259.928l-528.53,-61.7l-261.442,463.104l63.214,-528.036l-462.608,-262.956l527.54,64.728l261.441,-463.105Z" style="fill:#0d28f2;"/><clipPath id="_clip1"><path d="M901.365,28.346l-63.213,528.037l463.598,259.928l-528.53,-61.7l-261.442,463.104l63.214,-528.036l-462.608,-262.956l527.54,64.728l261.441,-463.105Z"/></clipPath><g clip-path="url(#_clip1)"><path d="M835.855,228.339c218.81,71.674 338.266,307.509 266.593,526.319c-71.673,218.81 -307.509,338.266 -526.319,266.593c-218.81,-71.673 -338.266,-307.509 -266.593,-526.319c71.674,-218.81 307.509,-338.266 526.319,-266.593Z" style="fill:#1a7ae6;"/></g><path d="M901.365,28.346l-63.213,528.037l463.598,259.928l-528.53,-61.7l-261.442,463.104l63.214,-528.036l-462.608,-262.956l527.54,64.728l261.441,-463.105Z" style="fill:none;stroke:#0d28f2;stroke-width:0.24px;"/><path d="M112.706,426.828l1189.37,389.589" style="fill:none;"/><path d="M512.102,1217.82l389.589,-1189.37" style="fill:none;"/><path d="M1080.23,430.311l-247.57,229.32l63.915,331.351l-229.321,-247.569l-331.351,63.917l247.569,-229.323l-65.058,-330.773l230.464,246.991l331.352,-63.914Z" style="fill:#f20d0d;"/><clipPath id="_clip2"><path d="M1080.23,430.311l-247.57,229.32l63.915,331.351l-229.321,-247.569l-331.351,63.917l247.569,-229.323l-65.058,-330.773l230.464,246.991l331.352,-63.914Z"/></clipPath><g clip-path="url(#_clip2)"><path d="M783.553,385.466c131.286,43.004 202.96,184.505 159.956,315.791c-43.004,131.286 -184.506,202.96 -315.792,159.956c-131.286,-43.004 -202.96,-184.505 -159.956,-315.791c43.005,-131.286 184.506,-202.96 315.792,-159.956Z" style="fill:#3345cc;"/></g><path d="M1080.23,430.311l-247.57,229.32l63.915,331.351l-229.321,-247.569l-331.351,63.917l247.569,-229.323l-65.058,-330.773l230.464,246.991l331.352,-63.914Z" style="fill:none;stroke:#000;stroke-width:0.24px;"/><path d="M987.408,477.509l-558.246,282.764" style="fill:none;"/><path d="M848.81,898.447l-282.765,-558.246" style="fill:none;"/><path d="M781.846,628.867l-76.288,-26.414l-80.155,26.076l79.476,26.072l76.967,-25.734Z" style="fill:#f20d0d;"/><path d="M703.965,545.627l-26.414,76.289l26.076,80.154l26.072,-79.475l-25.734,-76.968Z" style="fill:#f20d0d;"/></g><text x="707.229px" y="648.392px" style="font-family:'LucidaGrande', 'Lucida Grande', sans-serif;font-weight:500;font-size:278.122px;fill:#fff;stroke:#0d28f2;stroke-width:0.65px;stroke-linecap:butt;stroke-miterlimit:2;">C</text><text x="498.638px" y="836.353px" style="font-family:'LucidaGrande', 'Lucida Grande', sans-serif;font-weight:500;font-size:278.122px;fill:#fff;stroke:#0d28f2;stroke-width:0.65px;stroke-linecap:butt;stroke-miterlimit:2;">C</text><text x="811.525px" y="578.569px" style="font-family:'HiraginoSans-W4', 'Hiragino Sans', sans-serif;font-size:104.296px;fill:#fff;stroke:#0d28f2;stroke-width:0.65px;stroke-linecap:butt;stroke-miterlimit:2;">uisine</text><text x="597.725px" y="768.562px" style="font-family:'HiraginoSans-W4', 'Hiragino Sans', sans-serif;font-size:104.296px;fill:#fff;stroke:#0d28f2;stroke-width:0.65px;stroke-linecap:butt;stroke-miterlimit:2;">oordinator</text></g><text x="166.213px" y="1306.65px" style="font-family:'HiraginoSans-W7', 'Hiragino Sans', sans-serif;font-weight:700;font-size:64px;fill:#ff0300;stroke:#0d28f2;stroke-width:0.65px;stroke-linecap:butt;stroke-miterlimit:2;">The easy way to meet and eat!</text></g></svg>